<svg xmlns="http://www.w3.org/2000/svg" viewBox="0 0 1200 360" role="img" aria-labelledby="title description">
  <title id="title">Awesome Local Voice AI</title>
  <desc id="description">A signal green waveform crosses a dark field beside the title.</desc>
  <defs>
    <linearGradient id="field" x1="0" y1="0" x2="1" y2="1">
      <stop stop-color="#0b0f0d"/>
      <stop offset="1" stop-color="#121a15"/>
    </linearGradient>
    <linearGradient id="signal" x1="0" y1="0" x2="1" y2="0">
      <stop stop-color="#83f28f" stop-opacity="0.14"/>
      <stop offset="0.46" stop-color="#83f28f"/>
      <stop offset="1" stop-color="#d7ff6f" stop-opacity="0.2"/>
    </linearGradient>
    <pattern id="grid" width="40" height="40" patternUnits="userSpaceOnUse">
      <path d="M40 0H0V40" fill="none" stroke="#d9ffe0" stroke-opacity="0.055"/>
    </pattern>
  </defs>
  <rect width="1200" height="360" rx="18" fill="url(#field)"/>
  <rect width="1200" height="360" rx="18" fill="url(#grid)"/>
  <path d="M0 180h85l18-17 18 35 19-75 19 113 19-82 18 52 19-26h54l18-9 19 18 18-44 19 71 19-38 18 12h60l19-34 18 62 19-109 19 142 18-91 19 38 19-17h64l18-13 19 26 18-52 19 83 19-50 18 13h61l18-24 19 48 18-83 19 111 19-65 18 13h80" fill="none" stroke="url(#signal)" stroke-width="3"/>
  <circle cx="602" cy="180" r="5" fill="#d7ff6f"/>
  <text x="70" y="88" fill="#83f28f" font-family="ui-monospace, SFMono-Regular, Menlo, monospace" font-size="17" letter-spacing="3">OPEN FIELD GUIDE / 2026</text>
  <text x="70" y="294" fill="#f2f7f3" font-family="ui-sans-serif, -apple-system, BlinkMacSystemFont, Segoe UI, sans-serif" font-size="58" font-weight="680" letter-spacing="-2">Awesome Local Voice AI</text>
</svg>
